<?xml version="1.0" encoding="iso-8859-1"?>
<!-- Generator: Adobe Illustrator 18.1.1, SVG Export Plug-In . SVG Version: 6.00 Build 0)  -->
<svg version="1.1" id="Capa_1" xmlns="http://www.w3.org/2000/svg" xmlns:xlink="http://www.w3.org/1999/xlink" x="0px" y="0px"
	 viewBox="0 0 32.004 32.004" style="enable-background:new 0 0 32.004 32.004;" xml:space="preserve">
<g>
	<g>
		<path style="fill:#030104;" d="M27.586,14.714c-0.172-0.456-0.393-0.887-0.656-1.287c0.047-0.302,0.07-0.611,0.07-0.925
			c0-3.313-2.688-6-6-6c-1.533,0-2.932,0.575-3.992,1.521C15.576,7.063,13.854,6.502,12,6.502c-4.904,0-8.894,3.924-8.998,8.803
			C1.207,16.344,0,18.285,0,20.502c0,3.312,2.688,6,6,6h3.269C9.098,26.208,9,25.866,9,25.502c0-0.365,0.097-0.707,0.267-1h-3.27
			c-2.203,0-3.997-1.791-3.997-4c0-1.893,1.317-3.482,3.087-3.896C5.029,16.247,5,15.878,5,15.502c0-3.866,3.134-7,7-7
			c3.162,0,5.834,2.097,6.702,4.975c0.769-0.611,1.739-0.975,2.798-0.975c2.316,0,4.225,1.75,4.473,4h0.03
			c2.203,0,3.997,1.791,3.997,4c0,2.205-1.789,4-3.998,4H22.73c0.172,0.294,0.27,0.636,0.27,1c0,0.365-0.098,0.707-0.268,1H26
			c3.312,0,6-2.693,6-6C32,17.736,30.13,15.409,27.586,14.714z M21.5,10.502c-0.641,0-1.26,0.093-1.844,0.266
			c-0.319-0.515-0.688-0.994-1.1-1.432C19.23,8.813,20.079,8.502,21,8.502c1.839,0,3.389,1.241,3.855,2.933
			C23.876,10.843,22.729,10.502,21.5,10.502z"/>
		<path style="fill:#030104;" d="M20.005,24.502h-1.591l0.416-0.416c0.391-0.391,0.393-1.02-0.002-1.412
			c-0.391-0.391-1.027-0.387-1.412-0.002L17,23.088v-1.591c0-0.55-0.443-0.995-1-0.995c-0.553,0-1,0.456-1,0.995v1.591l-0.416-0.416
			c-0.39-0.391-1.019-0.393-1.412,0.002c-0.391,0.391-0.387,1.027-0.002,1.412l0.416,0.416h-1.591c-0.55,0-0.995,0.443-0.995,1
			c0,0.553,0.456,1,0.995,1h1.591l-0.416,0.416c-0.39,0.391-0.392,1.02,0.002,1.412c0.391,0.391,1.027,0.387,1.412,0.002L15,27.916
			v1.591c0,0.55,0.444,0.995,1,0.995c0.553,0,1-0.456,1-0.995v-1.591l0.416,0.416c0.391,0.391,1.02,0.393,1.412-0.002
			c0.391-0.391,0.387-1.027,0.002-1.412l-0.416-0.416h1.591c0.55,0,0.995-0.443,0.995-1C21,24.949,20.544,24.502,20.005,24.502z
			 M16,26.502c-0.556,0-1-0.447-1-1c0-0.557,0.447-1,1-1c0.557,0,1,0.447,1,1C17,26.059,16.553,26.502,16,26.502z"/>
		<path style="fill:#030104;" d="M27.373,7.547l1.4-1.401c0.396-0.394,0.399-1.027,0.008-1.421c-0.391-0.39-1.021-0.393-1.422,0.007
			l-1.4,1.401c-0.395,0.394-0.4,1.027-0.007,1.421C26.343,7.943,26.973,7.947,27.373,7.547z"/>
		<path style="fill:#030104;" d="M21,5.502c0.553,0,1-0.443,1-1.01v-1.98c0-0.558-0.443-1.01-1-1.01c-0.553,0-1,0.443-1,1.01v1.98
			C20,5.05,20.443,5.502,21,5.502z"/>
		<path style="fill:#030104;" d="M28.004,12.506c0,0.552,0.443,1,1.01,1h1.98c0.558,0,1.01-0.444,1.01-1c0-0.553-0.443-1-1.01-1
			h-1.98C28.456,11.506,28.004,11.949,28.004,12.506z"/>
	</g>
</g>
<g>
</g>
<g>
</g>
<g>
</g>
<g>
</g>
<g>
</g>
<g>
</g>
<g>
</g>
<g>
</g>
<g>
</g>
<g>
</g>
<g>
</g>
<g>
</g>
<g>
</g>
<g>
</g>
<g>
</g>
</svg>
