<?xml version="1.0" encoding="iso-8859-1"?>
<!-- Generator: Adobe Illustrator 18.1.1, SVG Export Plug-In . SVG Version: 6.00 Build 0)  -->
<svg version="1.1" id="Capa_1" xmlns="http://www.w3.org/2000/svg" xmlns:xlink="http://www.w3.org/1999/xlink" x="0px" y="0px"
	 viewBox="0 0 31.997 31.997" style="enable-background:new 0 0 31.997 31.997;" xml:space="preserve">
<g>
	<g>
		<path style="fill:#010002;" d="M13,24.974c0,1.394,1.343,2.525,3,2.525s3-1.131,3-2.525c0-1.686-3-5.475-3-5.475
			S13,23.288,13,24.974z"/>
		<path style="fill:#010002;" d="M27.583,12.711c-0.926-2.461-3.302-4.212-6.086-4.212c-0.642,0-1.261,0.093-1.843,0.266
			c-1.588-2.561-4.422-4.266-7.655-4.266c-4.905,0-8.893,3.924-8.997,8.803C1.208,14.341,0,16.282,0,18.499c0,3.312,2.687,6,6,6
			h5.481c1.252-3.286,4.519-7,4.519-7s3.268,3.714,4.52,7h5.478c3.313,0,5.999-2.693,5.999-6
			C31.996,15.734,30.126,13.406,27.583,12.711z"/>
	</g>
</g>
<g>
</g>
<g>
</g>
<g>
</g>
<g>
</g>
<g>
</g>
<g>
</g>
<g>
</g>
<g>
</g>
<g>
</g>
<g>
</g>
<g>
</g>
<g>
</g>
<g>
</g>
<g>
</g>
<g>
</g>
</svg>
