<?xml version="1.0" encoding="iso-8859-1"?>
<!-- Generator: Adobe Illustrator 18.1.1, SVG Export Plug-In . SVG Version: 6.00 Build 0)  -->
<svg version="1.1" id="Capa_1" xmlns="http://www.w3.org/2000/svg" xmlns:xlink="http://www.w3.org/1999/xlink" x="0px" y="0px"
	 viewBox="0 0 32 32" style="enable-background:new 0 0 32 32;" xml:space="preserve">
<g>
	<g>
		<path style="fill:#030104;" d="M13,27.475C13,28.869,14.343,30,16,30s3-1.131,3-2.525C19,25.789,16,22,16,22S13,25.789,13,27.475z
			"/>
		<path style="fill:#030104;" d="M20.997,6c0.553,0,1-0.443,1-1.01V3.01c0-0.558-0.442-1.01-1-1.01c-0.552,0-0.999,0.444-0.999,1.01
			v1.98C19.998,5.548,20.441,6,20.997,6z"/>
		<path style="fill:#030104;" d="M28,13.004c0,0.552,0.443,1,1.01,1h1.981c0.557,0,1.009-0.444,1.009-1c0-0.553-0.443-1-1.009-1
			H29.01C28.452,12.004,28,12.448,28,13.004z"/>
		<path style="fill:#030104;" d="M27.583,15.212c-0.172-0.456-0.392-0.887-0.657-1.287c0.047-0.302,0.071-0.611,0.071-0.925
			c0-3.313-2.687-6-6-6c-1.532,0-2.931,0.575-3.991,1.521C15.574,7.561,13.852,7,11.999,7c-4.904,0-8.893,3.924-8.997,8.803
			C1.207,16.842,0,18.783,0,21c0,3.312,2.687,6,5.999,6h5.481c0.252-0.66,0.585-1.339,0.957-2H5.996C3.794,25,2,23.209,2,21
			c0-1.893,1.317-3.482,3.086-3.896C5.029,16.745,4.999,16.376,4.999,16c0-3.866,3.134-7,7-7c3.161,0,5.833,2.097,6.701,4.975
			C19.469,13.364,20.439,13,21.497,13c2.317,0,4.224,1.75,4.474,4H26c2.202,0,3.996,1.791,3.996,4c0,2.205-1.789,4-3.996,4h-6.438
			c0.373,0.661,0.705,1.34,0.957,2h5.478c3.313,0,5.999-2.693,5.999-6C31.996,18.234,30.126,15.907,27.583,15.212z M21.497,11
			c-0.642,0-1.261,0.093-1.843,0.266c-0.319-0.515-0.688-0.994-1.1-1.432C19.229,9.311,20.077,9,20.997,9
			c1.84,0,3.39,1.241,3.856,2.933C23.873,11.341,22.727,11,21.497,11z"/>
		<path style="fill:#030104;" d="M27.37,8.045l1.399-1.401c0.396-0.395,0.4-1.027,0.008-1.421c-0.393-0.39-1.021-0.393-1.422,0.007
			l-1.399,1.401c-0.396,0.394-0.401,1.027-0.007,1.421C26.34,8.441,26.971,8.445,27.37,8.045z"/>
	</g>
</g>
<g>
</g>
<g>
</g>
<g>
</g>
<g>
</g>
<g>
</g>
<g>
</g>
<g>
</g>
<g>
</g>
<g>
</g>
<g>
</g>
<g>
</g>
<g>
</g>
<g>
</g>
<g>
</g>
<g>
</g>
</svg>
