<?xml version="1.0" encoding="iso-8859-1"?>
<!-- Generator: Adobe Illustrator 18.1.1, SVG Export Plug-In . SVG Version: 6.00 Build 0)  -->
<svg version="1.1" id="Capa_1" xmlns="http://www.w3.org/2000/svg" xmlns:xlink="http://www.w3.org/1999/xlink" x="0px" y="0px"
	 viewBox="0 0 18 18" style="enable-background:new 0 0 18 18;" xml:space="preserve">
<g>
	<g>
		<polygon style="fill:#010002;" points="9,18 12,14 6,14 		"/>
		<path style="fill:#010002;" d="M13.997,10H4.003C3.449,10,3,10.443,3,11c0,0.553,0.456,1,1.003,1h9.994C14.551,12,15,11.557,15,11
			C15,10.447,14.544,10,13.997,10z"/>
		<path style="fill:#010002;" d="M5.558,8c-0.34-0.588-0.535-1.271-0.535-2c0-1.48,0.805-2.773,2.001-3.465
			C7.036,4.836,8.244,6.854,10.059,8h4.625c0.139-0.396,0.238-0.811,0.293-1.239C14.52,6.916,14.032,7,13.523,7
			c-2.484,0-4.5-2.015-4.5-4.5c0-0.906,0.269-1.75,0.729-2.456C9.514,0.015,9.27,0,9.023,0c-0.548,0-1.08,0.073-1.585,0.212
			C4.893,0.907,3.023,3.235,3.023,6c0,0.701,0.122,1.374,0.342,2H5.558z"/>
	</g>
</g>
<g>
</g>
<g>
</g>
<g>
</g>
<g>
</g>
<g>
</g>
<g>
</g>
<g>
</g>
<g>
</g>
<g>
</g>
<g>
</g>
<g>
</g>
<g>
</g>
<g>
</g>
<g>
</g>
<g>
</g>
</svg>
