<?xml version="1.0" encoding="iso-8859-1"?>
<!-- Generator: Adobe Illustrator 18.1.1, SVG Export Plug-In . SVG Version: 6.00 Build 0)  -->
<svg version="1.1" id="Capa_1" xmlns="http://www.w3.org/2000/svg" xmlns:xlink="http://www.w3.org/1999/xlink" x="0px" y="0px"
	 viewBox="0 0 32 32" style="enable-background:new 0 0 32 32;" xml:space="preserve">
<g>
	<g>
		<path style="fill:#030104;" d="M20,21.527V4.006C20,1.793,18.205,0,16,0c-2.209,0-4,1.787-4,4.006v17.521
			c-1.228,1.099-2,2.696-2,4.473c0,3.312,2.687,6,6,6c3.312,0,6-2.688,6-6C22,24.223,21.229,22.626,20,21.527z M16,30
			c-2.209,0-4-1.791-4-4c0-1.48,0.805-2.773,2-3.465V4.005C14,2.897,14.896,2,16,2c1.111,0,2,0.897,2,2.005v18.53
			c1.195,0.691,2,1.984,2,3.465C20,28.209,18.209,30,16,30z"/>
		<path style="fill:#030104;" d="M16.986,23.166C16.996,23.115,17,23.062,17,23.009v-4.018C17,18.443,16.557,18,16,18
			c-0.553,0-1,0.451-1,0.991v4.018c0,0.054,0.004,0.106,0.013,0.157C13.841,23.574,13,24.689,13,26c0,1.657,1.343,3,3,3s3-1.343,3-3
			C19,24.689,18.159,23.574,16.986,23.166z"/>
	</g>
</g>
<g>
</g>
<g>
</g>
<g>
</g>
<g>
</g>
<g>
</g>
<g>
</g>
<g>
</g>
<g>
</g>
<g>
</g>
<g>
</g>
<g>
</g>
<g>
</g>
<g>
</g>
<g>
</g>
<g>
</g>
</svg>
