<?xml version="1.0" encoding="iso-8859-1"?>
<!-- Generator: Adobe Illustrator 18.1.1, SVG Export Plug-In . SVG Version: 6.00 Build 0)  -->
<svg version="1.1" id="Capa_1" xmlns="http://www.w3.org/2000/svg" xmlns:xlink="http://www.w3.org/1999/xlink" x="0px" y="0px"
	 viewBox="0 0 12 12" style="enable-background:new 0 0 12 12;" xml:space="preserve">
<g>
	<path style="fill:#030104;" d="M10.524,7c-2.484,0-4.5-2.015-4.5-4.5c0-0.906,0.269-1.75,0.729-2.456C6.513,0.015,6.271,0,6.023,0
		c-0.549,0-1.08,0.073-1.585,0.212C1.893,0.907,0.023,3.235,0.023,6c0,3.312,2.687,6,6,6c3.057,0,5.579-2.285,5.953-5.239
		C11.521,6.916,11.032,7,10.524,7z M6.023,10c-2.209,0-4-1.791-4-4c0-1.48,0.805-2.773,2.001-3.465
		C4.04,5.544,6.1,8.068,8.886,8.792C8.163,9.537,7.147,10,6.023,10z"/>
</g>
<g>
</g>
<g>
</g>
<g>
</g>
<g>
</g>
<g>
</g>
<g>
</g>
<g>
</g>
<g>
</g>
<g>
</g>
<g>
</g>
<g>
</g>
<g>
</g>
<g>
</g>
<g>
</g>
<g>
</g>
</svg>
