<?xml version="1.0" encoding="iso-8859-1"?>
<!-- Generator: Adobe Illustrator 18.1.1, SVG Export Plug-In . SVG Version: 6.00 Build 0)  -->
<svg version="1.1" id="Capa_1" xmlns="http://www.w3.org/2000/svg" xmlns:xlink="http://www.w3.org/1999/xlink" x="0px" y="0px"
	 viewBox="0 0 17 17" style="enable-background:new 0 0 17 17;" xml:space="preserve">
<g>
	<g>
		<path style="fill:#010002;" d="M5.058,8c-0.34-0.588-0.535-1.271-0.535-2c0-1.48,0.805-2.773,2.001-3.465
			C6.536,4.836,7.744,6.854,9.559,8h4.625c0.139-0.396,0.238-0.811,0.293-1.239C14.02,6.916,13.532,7,13.023,7
			c-2.484,0-4.5-2.015-4.5-4.5c0-0.906,0.269-1.75,0.729-2.456C9.014,0.015,8.77,0,8.523,0c-0.548,0-1.08,0.073-1.585,0.212
			C4.393,0.907,2.523,3.235,2.523,6c0,0.701,0.122,1.374,0.342,2H5.058z"/>
		<polygon style="fill:#010002;" points="5.5,17 11.5,17 8.5,13 		"/>
		<path style="fill:#010002;" d="M13.497,10H3.503C2.949,10,2.5,10.443,2.5,11c0,0.553,0.456,1,1.003,1h9.994
			c0.554,0,1.003-0.443,1.003-1C14.5,10.447,14.044,10,13.497,10z"/>
	</g>
</g>
<g>
</g>
<g>
</g>
<g>
</g>
<g>
</g>
<g>
</g>
<g>
</g>
<g>
</g>
<g>
</g>
<g>
</g>
<g>
</g>
<g>
</g>
<g>
</g>
<g>
</g>
<g>
</g>
<g>
</g>
</svg>
