<?xml version="1.0" encoding="iso-8859-1"?>
<!-- Generator: Adobe Illustrator 18.1.1, SVG Export Plug-In . SVG Version: 6.00 Build 0)  -->
<svg version="1.1" id="Capa_1" xmlns="http://www.w3.org/2000/svg" xmlns:xlink="http://www.w3.org/1999/xlink" x="0px" y="0px"
	 viewBox="0 0 32.004 32.004" style="enable-background:new 0 0 32.004 32.004;" xml:space="preserve">
<g>
	<g>
		<polygon style="fill:#030104;" points="19,19.002 14.714,19.002 12,26.002 14.429,26.002 13,31.002 20,24.002 16.551,24.002 		"/>
		<path style="fill:#030104;" d="M28.004,12.006c0,0.552,0.443,1,1.01,1h1.98c0.558,0,1.01-0.444,1.01-1c0-0.552-0.443-1-1.01-1
			h-1.98C28.456,11.006,28.004,11.45,28.004,12.006z"/>
		<path style="fill:#030104;" d="M27.586,14.214c-0.172-0.455-0.393-0.887-0.656-1.287c0.047-0.302,0.07-0.611,0.07-0.925
			c0-3.313-2.688-6-6-6c-1.533,0-2.932,0.575-3.992,1.521C15.576,6.563,13.854,6.002,12,6.002c-4.904,0-8.894,3.923-8.998,8.803
			C1.207,15.844,0,17.785,0,20.002c0,3.312,2.688,6,6,6h3.728l3.272-9h9l-3,6h5l-3,3h5c3.312,0,6-2.693,6-6
			C32,17.236,30.13,14.909,27.586,14.214z M21.5,10.002c-0.641,0-1.26,0.093-1.844,0.265c-0.319-0.514-0.688-0.994-1.1-1.432
			C19.23,8.313,20.079,8.002,21,8.002c1.839,0,3.389,1.242,3.855,2.932C23.876,10.342,22.729,10.002,21.5,10.002z"/>
		<path style="fill:#030104;" d="M27.373,7.046l1.4-1.401c0.396-0.394,0.4-1.027,0.008-1.42c-0.391-0.391-1.021-0.394-1.422,0.006
			l-1.4,1.401c-0.395,0.395-0.4,1.028-0.007,1.421C26.343,7.444,26.973,7.447,27.373,7.046z"/>
		<path style="fill:#030104;" d="M21,5.002c0.553,0,1-0.443,1-1.01V2.011c0-0.557-0.443-1.009-1-1.009c-0.553,0-1,0.443-1,1.009
			v1.982C20,4.55,20.443,5.002,21,5.002z"/>
	</g>
</g>
<g>
</g>
<g>
</g>
<g>
</g>
<g>
</g>
<g>
</g>
<g>
</g>
<g>
</g>
<g>
</g>
<g>
</g>
<g>
</g>
<g>
</g>
<g>
</g>
<g>
</g>
<g>
</g>
<g>
</g>
</svg>
