<?xml version="1.0" encoding="iso-8859-1"?>
<!-- Generator: Adobe Illustrator 18.1.1, SVG Export Plug-In . SVG Version: 6.00 Build 0)  -->
<svg version="1.1" id="Capa_1" xmlns="http://www.w3.org/2000/svg" xmlns:xlink="http://www.w3.org/1999/xlink" x="0px" y="0px"
	 viewBox="0 0 32 32" style="enable-background:new 0 0 32 32;" xml:space="preserve">
<g>
	<path style="fill:#030104;" d="M27.586,14.212C26.66,11.751,24.284,10,21.5,10c-0.641,0-1.26,0.093-1.846,0.266
		C18.068,7.705,15.233,6,12,6c-4.904,0-8.894,3.924-8.998,8.803C1.207,15.842,0,17.783,0,20c0,3.312,2.688,6,6,6h20
		c3.312,0,6-2.693,6-6C32,17.234,30.13,14.907,27.586,14.212z M19.003,19h-6.006C12.453,19,12,18.553,12,18c0-0.557,0.446-1,0.997-1
		h6.006C19.547,17,20,17.447,20,18C20,18.557,19.555,19,19.003,19z"/>
</g>
<g>
</g>
<g>
</g>
<g>
</g>
<g>
</g>
<g>
</g>
<g>
</g>
<g>
</g>
<g>
</g>
<g>
</g>
<g>
</g>
<g>
</g>
<g>
</g>
<g>
</g>
<g>
</g>
<g>
</g>
</svg>
