<?xml version="1.0" encoding="iso-8859-1"?>
<!-- Generator: Adobe Illustrator 18.1.1, SVG Export Plug-In . SVG Version: 6.00 Build 0)  -->
<svg version="1.1" id="Capa_1" xmlns="http://www.w3.org/2000/svg" xmlns:xlink="http://www.w3.org/1999/xlink" x="0px" y="0px"
	 viewBox="0 0 32 32" style="enable-background:new 0 0 32 32;" xml:space="preserve">
<g>
	<g>
		<path style="fill:#030104;" d="M27.585,14.712c-0.376-0.999-0.991-1.882-1.774-2.577c1.152-0.948,1.945-2.318,2.142-3.874
			C27.497,8.416,27.008,8.5,26.5,8.5C24.016,8.5,22,6.485,22,4c0-0.906,0.268-1.75,0.729-2.456C22.49,1.515,22.247,1.5,22,1.5
			c-0.549,0-1.081,0.073-1.586,0.212C17.891,2.402,16.029,4.7,16,7.436C14.795,6.837,13.438,6.5,12,6.5
			c-4.904,0-8.894,3.924-8.998,8.803C1.207,16.342,0,18.283,0,20.5c0,3.312,2.688,6,6,6h4.286C10.104,26.202,10,25.852,10,25.477
			c0-1.055,0.815-1.903,1.847-1.973c-0.063-0.572,0.126-1.167,0.567-1.607c0.436-0.436,1.024-0.625,1.593-0.568
			C14.093,20.302,14.952,19.5,16,19.5c1.057,0,1.908,0.805,1.994,1.83c0.572-0.062,1.167,0.129,1.605,0.566
			c0.441,0.442,0.629,1.037,0.567,1.609C21.195,23.581,22,24.434,22,25.477c0,0.375-0.104,0.726-0.285,1.023H26c3.312,0,6-2.693,6-6
			C32,17.734,30.13,15.407,27.585,14.712z M23.966,10.984c-0.76-0.312-1.593-0.484-2.466-0.484c-0.632,0-1.243,0.09-1.82,0.258
			c-0.018-0.013-0.035-0.025-0.052-0.038c-0.368-0.586-0.802-1.127-1.291-1.611C18.12,8.616,18,8.072,18,7.5
			c0-1.48,0.805-2.773,2-3.465c0.016,3.009,2.077,5.534,4.863,6.257C24.6,10.563,24.298,10.796,23.966,10.984z"/>
		<path style="fill:#030104;" d="M20.005,24.5h-1.591l0.416-0.416c0.391-0.391,0.393-1.02-0.002-1.412
			c-0.391-0.391-1.027-0.387-1.412-0.002L17,23.086v-1.591c0-0.55-0.443-0.995-1-0.995c-0.553,0-1,0.456-1,0.995v1.591l-0.416-0.416
			c-0.39-0.391-1.019-0.393-1.412,0.002c-0.391,0.391-0.387,1.027-0.002,1.412l0.416,0.416h-1.591c-0.55,0-0.995,0.443-0.995,1
			c0,0.553,0.456,1,0.995,1h1.591l-0.416,0.416c-0.39,0.391-0.392,1.02,0.002,1.412c0.391,0.391,1.027,0.387,1.412,0.002L15,27.914
			v1.591c0,0.55,0.444,0.995,1,0.995c0.553,0,1-0.456,1-0.995v-1.591l0.416,0.416c0.391,0.39,1.02,0.393,1.412-0.002
			c0.391-0.391,0.387-1.027,0.002-1.412L18.414,26.5h1.591c0.55,0,0.995-0.443,0.995-1C21,24.947,20.544,24.5,20.005,24.5z M16,26.5
			c-0.556,0-1-0.447-1-1c0-0.557,0.447-1,1-1c0.557,0,1,0.447,1,1C17,26.057,16.553,26.5,16,26.5z"/>
	</g>
</g>
<g>
</g>
<g>
</g>
<g>
</g>
<g>
</g>
<g>
</g>
<g>
</g>
<g>
</g>
<g>
</g>
<g>
</g>
<g>
</g>
<g>
</g>
<g>
</g>
<g>
</g>
<g>
</g>
<g>
</g>
</svg>
