<?xml version="1.0" encoding="iso-8859-1"?>
<!-- Generator: Adobe Illustrator 18.1.1, SVG Export Plug-In . SVG Version: 6.00 Build 0)  -->
<svg version="1.1" id="Capa_1" xmlns="http://www.w3.org/2000/svg" xmlns:xlink="http://www.w3.org/1999/xlink" x="0px" y="0px"
	 viewBox="0 0 32 32" style="enable-background:new 0 0 32 32;" xml:space="preserve">
<g>
	<g>
		<polygon style="fill:#030104;" points="19,19 14.714,19 12,26 14.429,26 13,31 20,24 16.551,24 		"/>
		<path style="fill:#030104;" d="M27.585,14.212c-0.376-0.999-0.991-1.882-1.774-2.577c1.152-0.948,1.945-2.318,2.142-3.874
			C27.496,7.916,27.008,8,26.5,8C24.016,8,22,5.985,22,3.5c0-0.906,0.268-1.75,0.729-2.456C22.49,1.015,22.247,1,22,1
			c-0.549,0-1.081,0.073-1.586,0.212C17.891,1.902,16.029,4.2,16,6.936C14.795,6.337,13.438,6,12,6
			c-4.904,0-8.894,3.924-8.998,8.803C1.207,15.842,0,17.783,0,20c0,3.312,2.688,6,6,6h3.8l0.8-2H5.997C3.794,24,2,22.209,2,20
			c0-1.893,1.317-3.482,3.087-3.896C5.029,15.745,5,15.376,5,15c0-3.866,3.134-7,7-7c3.162,0,5.834,2.097,6.702,4.975
			C19.471,12.364,20.441,12,21.5,12c2.316,0,4.225,1.75,4.473,4h0.03C28.206,16,30,17.791,30,20c0,2.205-1.789,4-3.997,4H23l-2,2h5
			c3.312,0,6-2.693,6-6C32,17.234,30.13,14.907,27.585,14.212z M23.966,10.484C23.206,10.172,22.373,10,21.5,10
			c-0.632,0-1.243,0.09-1.82,0.258c-0.018-0.013-0.035-0.025-0.052-0.038c-0.368-0.586-0.802-1.127-1.291-1.611
			C18.12,8.116,18,7.572,18,7c0-1.48,0.805-2.773,2-3.465c0.016,3.009,2.077,5.534,4.863,6.257
			C24.6,10.063,24.298,10.296,23.966,10.484z"/>
	</g>
</g>
<g>
</g>
<g>
</g>
<g>
</g>
<g>
</g>
<g>
</g>
<g>
</g>
<g>
</g>
<g>
</g>
<g>
</g>
<g>
</g>
<g>
</g>
<g>
</g>
<g>
</g>
<g>
</g>
<g>
</g>
</svg>
