<?xml version="1.0" encoding="iso-8859-1"?>
<!-- Generator: Adobe Illustrator 18.1.1, SVG Export Plug-In . SVG Version: 6.00 Build 0)  -->
<svg version="1.1" id="Capa_1" xmlns="http://www.w3.org/2000/svg" xmlns:xlink="http://www.w3.org/1999/xlink" x="0px" y="0px"
	 viewBox="0 0 32 32" style="enable-background:new 0 0 32 32;" xml:space="preserve">
<g>
	<g>
		<path style="fill:#030104;" d="M20.997,5c0.552,0,1-0.444,1-1.01V2.01c0-0.558-0.444-1.01-1-1.01c-0.554,0-1,0.444-1,1.01v1.98
			C19.997,4.548,20.439,5,20.997,5z"/>
		<path style="fill:#030104;" d="M14.624,7.044c0.395,0.394,1.027,0.4,1.421,0.006c0.39-0.39,0.393-1.021-0.007-1.421l-1.401-1.4
			c-0.394-0.394-1.028-0.4-1.42-0.007c-0.39,0.391-0.393,1.021,0.006,1.421L14.624,7.044z"/>
		<path style="fill:#030104;" d="M28,12.003c0,0.553,0.443,1,1.01,1h1.98c0.558,0,1.01-0.443,1.01-1c0-0.552-0.443-1-1.01-1h-1.98
			C28.452,11.003,28,11.447,28,12.003z"/>
		<path style="fill:#030104;" d="M27.37,7.045l1.399-1.401c0.396-0.395,0.401-1.027,0.008-1.421
			c-0.391-0.39-1.021-0.393-1.422,0.007l-1.4,1.4c-0.393,0.394-0.398,1.028-0.006,1.421C26.339,7.441,26.971,7.444,27.37,7.045z"/>
		<path style="fill:#030104;" d="M16,10c0.504,0,1.003,0.021,1.495,0.064C18.178,8.834,19.488,8,20.997,8c2.209,0,4,1.791,4,4
			c0,0.193-0.015,0.383-0.04,0.569c0.613,0.39,1.197,0.819,1.748,1.284c0.189-0.584,0.292-1.207,0.292-1.853c0-3.313-2.687-6-6-6
			c-2.617,0-4.843,1.676-5.663,4.013C15.555,10.004,15.776,10,16,10z"/>
		<path style="fill:#030104;" d="M16,11C7.163,11,0,17.716,0,26c0,0.553,0.447,1,1,1s1-0.447,1-1c0-7.18,6.268-13,14-13
			s14,5.82,14,13c0,0.553,0.447,1,1,1s1-0.447,1-1C32,17.716,24.837,11,16,11z"/>
		<path style="fill:#030104;" d="M31.007,29H0.993C0.444,29,0,29.443,0,30c0,0.553,0.452,1,0.993,1h30.014
			C31.557,31,32,30.557,32,30C32,29.447,31.548,29,31.007,29z"/>
		<path style="fill:#030104;" d="M28,27c0.553,0,1-0.447,1-1c0-6.627-5.82-12-13-12S3,19.373,3,26c0,0.553,0.447,1,1,1s1-0.447,1-1
			c0-5.521,4.925-10,11-10s11,4.479,11,10C27,26.553,27.447,27,28,27z"/>
		<path style="fill:#030104;" d="M16,17c-5.522,0-10,4.029-10,9c0,0.553,0.447,1,1,1s1-0.447,1-1c0-3.866,3.582-7,8-7s8,3.134,8,7
			c0,0.553,0.447,1,1,1s1-0.447,1-1C26,21.029,21.521,17,16,17z"/>
	</g>
</g>
<g>
</g>
<g>
</g>
<g>
</g>
<g>
</g>
<g>
</g>
<g>
</g>
<g>
</g>
<g>
</g>
<g>
</g>
<g>
</g>
<g>
</g>
<g>
</g>
<g>
</g>
<g>
</g>
<g>
</g>
</svg>
