<?xml version="1.0" encoding="iso-8859-1"?>
<!-- Generator: Adobe Illustrator 18.1.1, SVG Export Plug-In . SVG Version: 6.00 Build 0)  -->
<svg version="1.1" id="Capa_1" xmlns="http://www.w3.org/2000/svg" xmlns:xlink="http://www.w3.org/1999/xlink" x="0px" y="0px"
	 viewBox="0 0 31.996 31.996" style="enable-background:new 0 0 31.996 31.996;" xml:space="preserve">
<g>
	<g>
		<path style="fill:#030104;" d="M13,24.973c0,1.394,1.343,2.525,3,2.525s3-1.131,3-2.525c0-1.686-3-5.475-3-5.475
			S13,23.287,13,24.973z"/>
		<path style="fill:#030104;" d="M27.583,12.71c-0.926-2.461-3.302-4.212-6.086-4.212c-0.642,0-1.261,0.093-1.843,0.266
			c-1.588-2.561-4.422-4.266-7.655-4.266c-4.905,0-8.893,3.924-8.997,8.803C1.208,14.34,0,16.281,0,18.498c0,3.312,2.687,6,6,6h5.48
			c0.252-0.66,0.585-1.339,0.957-2H5.996c-2.203,0-3.996-1.791-3.996-4c0-1.893,1.317-3.482,3.086-3.896
			C5.029,14.243,5,13.874,5,13.498c0-3.866,3.133-7,6.999-7c3.161,0,5.833,2.097,6.701,4.975c0.769-0.611,1.739-0.975,2.797-0.975
			c2.317,0,4.224,1.75,4.474,4H26c2.202,0,3.996,1.791,3.996,4c0,2.205-1.789,4-3.996,4h-6.438c0.373,0.661,0.705,1.34,0.957,2
			h5.478c3.313,0,5.999-2.693,5.999-6C31.996,15.733,30.126,13.405,27.583,12.71z"/>
	</g>
</g>
<g>
</g>
<g>
</g>
<g>
</g>
<g>
</g>
<g>
</g>
<g>
</g>
<g>
</g>
<g>
</g>
<g>
</g>
<g>
</g>
<g>
</g>
<g>
</g>
<g>
</g>
<g>
</g>
<g>
</g>
</svg>
