<?xml version="1.0" encoding="iso-8859-1"?>
<!-- Generator: Adobe Illustrator 18.1.1, SVG Export Plug-In . SVG Version: 6.00 Build 0)  -->
<svg version="1.1" id="Capa_1" xmlns="http://www.w3.org/2000/svg" xmlns:xlink="http://www.w3.org/1999/xlink" x="0px" y="0px"
	 viewBox="0 0 32 32" style="enable-background:new 0 0 32 32;" xml:space="preserve">
<g>
	<g>
		<path style="fill:#030104;" d="M20.006,21.925h-1.619l0.447-0.449c0.383-0.383,0.384-1.004-0.005-1.393
			c-0.386-0.386-1.011-0.388-1.392-0.004L17,20.517v-1.541c0-0.555-0.443-1.002-1-1.002c-0.553,0-1,0.449-1,1.002v1.541
			l-0.437-0.438c-0.383-0.384-1.004-0.384-1.392,0.006c-0.386,0.387-0.387,1.01-0.005,1.393l0.448,0.447h-1.62
			c-0.55,0-0.995,0.438-0.995,0.988c0,0.545,0.442,0.985,0.995,0.985h1.62l-0.448,0.45c-0.383,0.383-0.384,1.004,0.005,1.393
			c0.386,0.386,1.01,0.388,1.392,0.005L15,25.311v1.539c0,0.553,0.444,1.002,1,1.002c0.553,0,1-0.449,1-1.002v-1.539l0.438,0.436
			c0.383,0.383,1.004,0.385,1.393-0.006c0.386-0.385,0.387-1.01,0.005-1.391l-0.448-0.449h1.62c0.552,0,0.995-0.438,0.995-0.986
			C21.001,22.367,20.559,21.925,20.006,21.925z M16,23.899c-0.553,0-1-0.44-1-0.985c0-0.548,0.447-0.988,1-0.988
			c0.553,0,1,0.44,1,0.988C17,23.459,16.553,23.899,16,23.899z"/>
		<path style="fill:#030104;" d="M27.579,12.241C26.648,9.82,24.277,8.098,21.5,8.098c-0.641,0-1.26,0.092-1.846,0.263
			C18.068,5.832,15.233,4.148,12,4.148c-4.897,0-8.881,3.863-8.997,8.672C1.21,13.84,0,15.769,0,17.974
			c0,3.273,2.646,5.926,5.926,5.926h4.338C10.096,23.611,10,23.273,10,22.915c0-1.056,0.816-1.904,1.85-1.972
			c-0.068-0.578,0.12-1.178,0.565-1.623c0.438-0.438,1.029-0.627,1.6-0.567c0.115-0.996,0.961-1.765,1.986-1.765
			c1.033,0,1.873,0.771,1.985,1.767c0.576-0.064,1.174,0.125,1.613,0.565c0.444,0.445,0.633,1.045,0.564,1.623
			C21.195,21.017,22,21.871,22,22.915c0,0.358-0.096,0.696-0.264,0.985h4.338c3.273,0,5.926-2.658,5.926-5.926
			C32,15.221,30.127,12.906,27.579,12.241z"/>
	</g>
</g>
<g>
</g>
<g>
</g>
<g>
</g>
<g>
</g>
<g>
</g>
<g>
</g>
<g>
</g>
<g>
</g>
<g>
</g>
<g>
</g>
<g>
</g>
<g>
</g>
<g>
</g>
<g>
</g>
<g>
</g>
</svg>
