<?xml version="1.0" encoding="iso-8859-1"?>
<!-- Generator: Adobe Illustrator 18.1.1, SVG Export Plug-In . SVG Version: 6.00 Build 0)  -->
<svg version="1.1" id="Capa_1" xmlns="http://www.w3.org/2000/svg" xmlns:xlink="http://www.w3.org/1999/xlink" x="0px" y="0px"
	 viewBox="0 0 32 32" style="enable-background:new 0 0 32 32;" xml:space="preserve">
<g>
	<g>
		<circle style="fill:#030104;" cx="8" cy="25.5" r="1"/>
		<circle style="fill:#030104;" cx="16" cy="25.5" r="1"/>
		<circle style="fill:#030104;" cx="12" cy="28.5" r="1"/>
		<circle style="fill:#030104;" cx="20" cy="28.5" r="1"/>
		<path style="fill:#030104;" d="M27.586,10.712C26.66,8.251,24.284,6.5,21.5,6.5c-0.641,0-1.26,0.093-1.846,0.266
			C18.068,4.205,15.233,2.5,12,2.5c-4.904,0-8.894,3.923-8.998,8.803C1.207,12.342,0,14.283,0,16.5c0,3.312,2.688,6,6,6h20
			c3.312,0,6-2.693,6-6C32,13.735,30.13,11.407,27.586,10.712z"/>
		<circle style="fill:#030104;" cx="24" cy="25.5" r="1"/>
	</g>
</g>
<g>
</g>
<g>
</g>
<g>
</g>
<g>
</g>
<g>
</g>
<g>
</g>
<g>
</g>
<g>
</g>
<g>
</g>
<g>
</g>
<g>
</g>
<g>
</g>
<g>
</g>
<g>
</g>
<g>
</g>
</svg>
