<?xml version="1.0" encoding="iso-8859-1"?>
<!-- Generator: Adobe Illustrator 18.1.1, SVG Export Plug-In . SVG Version: 6.00 Build 0)  -->
<svg version="1.1" id="Capa_1" xmlns="http://www.w3.org/2000/svg" xmlns:xlink="http://www.w3.org/1999/xlink" x="0px" y="0px"
	 viewBox="0 0 32 32" style="enable-background:new 0 0 32 32;" xml:space="preserve">
<g>
	<g>
		<path style="fill:#030104;" d="M20.005,22h-1.591l0.416-0.416c0.391-0.391,0.393-1.02-0.002-1.412
			c-0.391-0.391-1.027-0.387-1.412-0.002L17,20.586v-1.591C17,18.445,16.557,18,16,18c-0.553,0-1,0.456-1,0.995v1.591l-0.416-0.416
			c-0.39-0.39-1.019-0.393-1.412,0.002c-0.391,0.391-0.387,1.027-0.002,1.412L13.586,22h-1.591C11.445,22,11,22.443,11,23
			c0,0.553,0.456,1,0.995,1h1.591l-0.416,0.416c-0.39,0.391-0.392,1.02,0.002,1.412c0.391,0.391,1.027,0.387,1.412,0.002L15,25.414
			v1.591C15,27.555,15.444,28,16,28c0.553,0,1-0.456,1-0.995v-1.591l0.416,0.416c0.391,0.39,1.02,0.393,1.412-0.002
			c0.391-0.391,0.387-1.027,0.002-1.412L18.414,24h1.591C20.555,24,21,23.557,21,23C21,22.447,20.544,22,20.005,22z M16,24
			c-0.556,0-1-0.447-1-1c0-0.557,0.447-1,1-1c0.557,0,1,0.447,1,1C17,23.557,16.553,24,16,24z"/>
		<path style="fill:#030104;" d="M27.586,12.212C26.66,9.751,24.284,8,21.5,8c-0.641,0-1.26,0.093-1.846,0.266
			C18.068,5.705,15.233,4,12,4c-4.904,0-8.894,3.924-8.998,8.803C1.207,13.842,0,15.783,0,18c0,3.312,2.687,6,6,6h3.269
			C9.098,23.706,9,23.364,9,23c0-0.365,0.097-0.707,0.267-1h-3.27C3.794,22,2,20.209,2,18c0-1.892,1.317-3.482,3.087-3.896
			C5.029,13.745,5,13.376,5,13c0-3.866,3.134-7,7-7c3.162,0,5.834,2.097,6.702,4.975C19.471,10.364,20.441,10,21.5,10
			c2.316,0,4.225,1.75,4.473,4h0.03C28.206,14,30,15.791,30,18c0,2.205-1.789,4-3.998,4H22.73c0.172,0.294,0.27,0.636,0.27,1
			c0,0.365-0.098,0.707-0.268,1H26c3.312,0,6-2.693,6-6C32,15.235,30.13,12.907,27.586,12.212z"/>
	</g>
</g>
<g>
</g>
<g>
</g>
<g>
</g>
<g>
</g>
<g>
</g>
<g>
</g>
<g>
</g>
<g>
</g>
<g>
</g>
<g>
</g>
<g>
</g>
<g>
</g>
<g>
</g>
<g>
</g>
<g>
</g>
</svg>
