<?xml version="1.0" encoding="iso-8859-1"?>
<!-- Generator: Adobe Illustrator 18.1.1, SVG Export Plug-In . SVG Version: 6.00 Build 0)  -->
<svg version="1.1" id="Capa_1" xmlns="http://www.w3.org/2000/svg" xmlns:xlink="http://www.w3.org/1999/xlink" x="0px" y="0px"
	 viewBox="0 0 22 22" style="enable-background:new 0 0 22 22;" xml:space="preserve">
<g>
	<path style="fill:#030104;" d="M21.001,11L21.001,11L17,4h-1l-2,3h1l1.333-2h0.237L20,11h-0.001c-0.034,0-0.067,0.002-0.103,0.005
		C19.134,10.284,18.066,10,17,10h-5h-2H4.992c-1.062,0-2.127,0.284-2.889,1.005C2.069,11.002,2.035,11,2.001,11H2l3.429-6h0.238L7,7
		h1L6,4H5l-4,7H0.999C0.447,11,0,11.444,0,12c0,0.553,0.442,1,0.999,1h0.085C1.029,13.307,1,13.641,1,14.002C1,17,3,18,4.99,18
		c1.662,0,4.01-0.5,4.353-2.688C9.343,15.312,9.5,14,11,14s1.657,1.312,1.657,1.312C13,17.5,15.35,18,16.994,18
		C19,18,21,17,21,13.998c0-0.361-0.029-0.693-0.084-0.998h0.085C21.553,13,22,12.557,22,12C22,11.447,21.559,11,21.001,11z"/>
</g>
<g>
</g>
<g>
</g>
<g>
</g>
<g>
</g>
<g>
</g>
<g>
</g>
<g>
</g>
<g>
</g>
<g>
</g>
<g>
</g>
<g>
</g>
<g>
</g>
<g>
</g>
<g>
</g>
<g>
</g>
</svg>
