<?xml version="1.0" encoding="iso-8859-1"?>
<!-- Generator: Adobe Illustrator 18.1.1, SVG Export Plug-In . SVG Version: 6.00 Build 0)  -->
<svg version="1.1" id="Capa_1" xmlns="http://www.w3.org/2000/svg" xmlns:xlink="http://www.w3.org/1999/xlink" x="0px" y="0px"
	 viewBox="0 0 22 22" style="enable-background:new 0 0 22 22;" xml:space="preserve">
<g>
	<path style="fill:#030104;" d="M21.001,8h-1.002c-0.034,0-0.067,0.002-0.103,0.005C19.133,7.286,18.066,7,17,7h-5h-2H4.992
		C3.93,7,2.865,7.285,2.103,8.005C2.069,8.002,2.035,8,2.001,8H0.999C0.447,8,0,8.443,0,9c0,0.553,0.442,1,0.999,1h0.085
		C1.029,10.307,1,10.642,1,11.002C1,14,3,15,4.99,15c1.662,0,4.01-0.5,4.353-2.688C9.343,12.312,9.5,11,11,11
		s1.657,1.312,1.657,1.312C13,14.5,15.349,15,16.994,15C19,15,21,14,21,10.999c0-0.361-0.029-0.693-0.084-0.998h0.085
		c0.552,0,0.999-0.444,0.999-1C22,8.448,21.559,8,21.001,8z"/>
</g>
<g>
</g>
<g>
</g>
<g>
</g>
<g>
</g>
<g>
</g>
<g>
</g>
<g>
</g>
<g>
</g>
<g>
</g>
<g>
</g>
<g>
</g>
<g>
</g>
<g>
</g>
<g>
</g>
<g>
</g>
</svg>
