<?xml version="1.0" encoding="iso-8859-1"?>
<!-- Generator: Adobe Illustrator 18.1.1, SVG Export Plug-In . SVG Version: 6.00 Build 0)  -->
<svg version="1.1" id="Capa_1" xmlns="http://www.w3.org/2000/svg" xmlns:xlink="http://www.w3.org/1999/xlink" x="0px" y="0px"
	 viewBox="0 0 16.141 16.141" style="enable-background:new 0 0 16.141 16.141;" xml:space="preserve">
<g>
	<g>
		<path style="fill:#030104;" d="M13.067,12.57H3.073c-0.554,0-1.004,0.443-1.004,1c0,0.553,0.456,1,1.004,1h9.993
			c0.555,0,1.003-0.443,1.003-1C14.07,13.017,13.614,12.57,13.067,12.57z"/>
		<path style="fill:#030104;" d="M15.849,4.792c-0.392-0.39-1.021-0.393-1.421,0.007l-1.4,1.4c-0.395,0.395-0.4,1.027-0.007,1.421
			c0.392,0.389,1.021,0.393,1.421-0.007l1.399-1.4C16.237,5.818,16.242,5.186,15.849,4.792z"/>
		<path style="fill:#030104;" d="M8.07,5.569c0.553,0,1-0.444,1-1.009V2.579c0-0.557-0.443-1.009-1-1.009c-0.551,0-1,0.443-1,1.009
			V4.56C7.07,5.117,7.514,5.569,8.07,5.569z"/>
		<path style="fill:#030104;" d="M3.12,7.62c0.389-0.391,0.393-1.021-0.007-1.421l-1.399-1.4c-0.396-0.395-1.026-0.4-1.421-0.007
			C-0.097,5.183-0.1,5.813,0.299,6.213l1.4,1.4C2.094,8.007,2.727,8.012,3.12,7.62z"/>
		<path style="fill:#030104;" d="M4.605,10.57C5.296,9.375,6.589,8.568,8.07,8.568c1.482,0,2.775,0.807,3.466,2.002h2.192
			c-0.822-2.331-3.046-4.001-5.658-4.001c-2.611,0-4.835,1.67-5.657,4.001H4.605z"/>
	</g>
</g>
<g>
</g>
<g>
</g>
<g>
</g>
<g>
</g>
<g>
</g>
<g>
</g>
<g>
</g>
<g>
</g>
<g>
</g>
<g>
</g>
<g>
</g>
<g>
</g>
<g>
</g>
<g>
</g>
<g>
</g>
</svg>
