<?xml version="1.0" encoding="iso-8859-1"?>
<!-- Generator: Adobe Illustrator 18.1.1, SVG Export Plug-In . SVG Version: 6.00 Build 0)  -->
<svg version="1.1" id="Capa_1" xmlns="http://www.w3.org/2000/svg" xmlns:xlink="http://www.w3.org/1999/xlink" x="0px" y="0px"
	 viewBox="0 0 22 22" style="enable-background:new 0 0 22 22;" xml:space="preserve">
<g>
	<g>
		<path style="fill:#030104;" d="M15.997,17H6.003C5.449,17,5,17.443,5,18c0,0.553,0.456,1,1.003,1h9.994C16.551,19,17,18.557,17,18
			C17,17.447,16.544,17,15.997,17z"/>
		<polygon style="fill:#030104;" points="11.001,15.996 14.001,11.997 8.001,11.997 		"/>
		<path style="fill:#030104;" d="M11,6.999c0.552,0,1-0.444,1-1.009V4.009C12,3.452,11.557,3,11,3c-0.552,0-1,0.443-1,1.009V5.99
			C10,6.547,10.444,6.999,11,6.999z"/>
		<path style="fill:#030104;" d="M6.05,9.05c0.389-0.391,0.393-1.021-0.007-1.421l-1.4-1.4c-0.395-0.395-1.028-0.4-1.421-0.007
			c-0.39,0.391-0.393,1.021,0.007,1.421l1.4,1.4C5.023,9.437,5.656,9.442,6.05,9.05z"/>
		<path style="fill:#030104;" d="M20.99,13h-1.981C18.452,13,18,13.443,18,14c0,0.525,0.402,0.956,0.927,0.997h2.146
			C21.592,14.956,22,14.529,22,14C22,13.448,21.557,13,20.99,13z"/>
		<path style="fill:#030104;" d="M2.99,13H1.009C0.452,13,0,13.443,0,14c0,0.525,0.401,0.956,0.927,0.997h2.144
			C3.59,14.956,3.999,14.529,3.999,14C3.999,13.448,3.555,13,2.99,13z"/>
		<path style="fill:#030104;" d="M18.777,6.222c-0.391-0.39-1.021-0.393-1.42,0.007l-1.4,1.4c-0.395,0.394-0.398,1.027-0.007,1.421
			c0.391,0.389,1.021,0.393,1.421-0.007l1.4-1.4C19.166,7.248,19.171,6.616,18.777,6.222z"/>
		<path style="fill:#030104;" d="M5.085,14.997h2.042c-0.082-0.32-0.126-0.655-0.126-1c0-2.209,1.79-3.999,3.999-3.999
			s3.999,1.79,3.999,3.999c0,0.345-0.044,0.68-0.126,1h2.042c0.056-0.325,0.083-0.659,0.083-1c0-3.312-2.686-5.998-5.998-5.998
			s-5.998,2.686-5.998,5.998C5.002,14.338,5.03,14.672,5.085,14.997z"/>
	</g>
</g>
<g>
</g>
<g>
</g>
<g>
</g>
<g>
</g>
<g>
</g>
<g>
</g>
<g>
</g>
<g>
</g>
<g>
</g>
<g>
</g>
<g>
</g>
<g>
</g>
<g>
</g>
<g>
</g>
<g>
</g>
</svg>
